HIERARCHY
ROOT root
{
	OFFSET 0.000000 0.000000 0.000000
	CHANNELS 6 Xposition Yposition Zposition Zrotation Yrotation Xrotation
	JOINT lhip
	{
		OFFSET 0.058581 -0.082280 -0.017664
		CHANNELS 3 Zrotation Yrotation Xrotation
		JOINT lknee
		{
			OFFSET 0.043451 -0.386469 0.008037
			CHANNELS 3 Zrotation Yrotation Xrotation
			JOINT lankle
			{
				OFFSET -0.014790 -0.426874 -0.037428
				CHANNELS 3 Zrotation Yrotation Xrotation
				JOINT ltoe
				{
					OFFSET 0.041054 -0.060286 0.122042
					CHANNELS 3 Zrotation Yrotation Xrotation
					End Site
					{
						OFFSET 0.000000 0.000000 0.000000
					}
				}
			}
		}
	}
	JOINT rhip
	{
		OFFSET -0.060310 -0.090513 -0.013543
		CHANNELS 3 Zrotation Yrotation Xrotation
		JOINT rknee
		{
			OFFSET -0.043257 -0.383688 -0.004843
			CHANNELS 3 Zrotation Yrotation Xrotation
			JOINT rankle
			{
				OFFSET 0.019056 -0.420046 -0.034562
				CHANNELS 3 Zrotation Yrotation Xrotation
				JOINT rtoe
				{
					OFFSET -0.034840 -0.062106 0.130323
					CHANNELS 3 Zrotation Yrotation Xrotation
					End Site
					{
						OFFSET 0.000000 0.000000 0.000000
					}
				}
			}
		}
	}
	JOINT lowerback
	{
		OFFSET 0.004439 0.124404 -0.038385
		CHANNELS 3 Zrotation Yrotation Xrotation
		JOINT upperback
		{
			OFFSET 0.004488 0.137956 0.026820
			CHANNELS 3 Zrotation Yrotation Xrotation
			JOINT chest
			{
				OFFSET -0.002265 0.056032 0.002855
				CHANNELS 3 Zrotation Yrotation Xrotation
				JOINT lowerneck
				{
					OFFSET -0.013390 0.211636 -0.033468
					CHANNELS 3 Zrotation Yrotation Xrotation
					JOINT upperneck
					{
						OFFSET 0.010113 0.088937 0.050410
						CHANNELS 3 Zrotation Yrotation Xrotation
						End Site
						{
							OFFSET 0.000000 0.000000 0.000000
						}
					}
				}
				JOINT lclavicle
				{
					OFFSET 0.071702 0.114000 -0.018898
					CHANNELS 3 Zrotation Yrotation Xrotation
					JOINT lshoulder
					{
						OFFSET 0.122921 0.045205 -0.019046
						CHANNELS 3 Zrotation Yrotation Xrotation
						JOINT lelbow
						{
							OFFSET 0.255332 -0.015649 -0.022946
							CHANNELS 3 Zrotation Yrotation Xrotation
							JOINT lwrist
							{
								OFFSET 0.265709 0.012698 -0.007375
								CHANNELS 3 Zrotation Yrotation Xrotation
								End Site
								{
									OFFSET 0.000000 0.000000 0.000000
								}
							}
						}
					}
				}
				JOINT rclavicle
				{
					OFFSET -0.082954 0.112472 -0.023707
					CHANNELS 3 Zrotation Yrotation Xrotation
					JOINT rshoulder
					{
						OFFSET -0.113228 0.046853 -0.008472
						CHANNELS 3 Zrotation Yrotation Xrotation
						JOINT relbow
						{
							OFFSET -0.260127 -0.014369 -0.031269
							CHANNELS 3 Zrotation Yrotation Xrotation
							JOINT rwrist
							{
								OFFSET -0.269108 0.006794 -0.006027
								CHANNELS 3 Zrotation Yrotation Xrotation
								End Site
								{
									OFFSET 0.000000 0.000000 0.000000
								}
							}
						}
					}
				}
			}
		}
	}
}
MOTION
Frames: 16
Frame Time: 0.033333
0.159778 0.765638 0.989892 99.397213 -0.408944 81.796762 -3.314579 4.920462 19.782578 0.948219 -15.366039 1.728865 5.525711 10.216149 -15.796873 0.000000 -0.000000 0.000000 -0.365700 -2.846538 -16.577574 -4.550070 -10.495514 3.734483 5.545928 -12.054019 -5.374286 0.000000 -0.000000 0.000000 -2.519804 -4.827538 12.281290 -0.794485 -1.811348 0.385040 1.214521 -2.156774 0.840628 2.243345 -0.881443 -9.520768 5.320567 -3.108803 -2.376542 -23.267894 -9.104556 0.177951 -55.299881 -21.155546 8.511614 7.171596 -29.694360 2.347129 -2.282697 -2.000953 -3.074968 22.034665 6.384696 1.184443 60.204649 -0.637602 14.536083 -10.577637 21.708485 1.026940 7.625756 -1.297455 -1.397570 
0.192954 0.761487 0.986098 100.169446 -0.545743 82.446712 -2.364731 4.772729 20.732131 0.538634 -15.855532 3.325724 5.023412 9.698404 -16.086423 0.000000 -0.000000 0.000000 -0.074471 -2.475616 -16.399353 -4.919989 -9.529223 -0.638991 5.584311 -11.294888 -5.109029 0.000000 -0.000000 0.000000 -2.577514 -4.800879 11.402752 -1.020675 -1.757820 0.607389 1.039568 -2.232515 0.499319 2.231038 -1.293868 -8.966984 5.336196 -3.467652 -1.975644 -23.435789 -8.455616 0.496151 -55.853010 -21.089480 9.168682 6.804717 -31.408625 3.027804 -2.246523 -2.498795 -3.628393 22.303760 5.879333 1.418856 59.902507 -0.874155 14.696732 -10.017587 21.597469 1.906660 7.848045 -1.316872 -1.436822 
0.227498 0.757295 0.983431 101.255658 -0.693109 82.975458 -1.312890 4.246781 21.371285 -0.235712 -16.883594 5.889268 4.243925 9.274101 -15.465121 0.000000 -0.000000 0.000000 -0.227177 -2.018998 -16.055500 -4.681802 -8.491417 -0.007918 5.175732 -11.101807 -5.441729 0.000000 -0.000000 0.000000 -2.783679 -4.926625 10.435954 -0.936995 -1.744061 0.596190 0.751066 -2.319171 0.568700 2.280649 -1.563308 -8.287185 5.174126 -3.735609 -1.415781 -23.716670 -7.732357 0.817953 -56.322822 -20.657808 9.633034 6.304305 -31.991412 3.893075 -2.454542 -2.602471 -4.187178 22.450342 5.401719 1.337179 59.625304 -1.058415 14.751419 -9.830987 21.486998 2.349711 7.917676 -1.516993 -1.547850 
0.264279 0.752024 0.982756 101.974857 -0.579179 83.171769 0.162604 3.594413 21.934176 -1.206397 -17.203467 9.323156 3.346832 8.568153 -13.371206 0.000000 -0.000000 0.000000 0.077653 -1.618418 -14.825757 -4.392273 -9.361707 1.919898 4.146970 -11.788962 -2.357910 0.000000 -0.000000 0.000000 -2.773503 -4.986322 9.562551 -0.938012 -1.504748 1.151164 0.584403 -2.230977 0.124882 2.046673 -2.363811 -7.559371 5.058873 -3.935840 -1.063644 -24.068776 -6.995551 1.505175 -56.470496 -19.795016 9.689639 5.728254 -31.592783 4.879046 -3.371521 -2.830845 -4.683970 22.867481 5.279968 1.532645 59.065877 -1.046731 14.624797 -9.977277 21.200167 2.259511 7.824597 -1.436494 -1.742793 
0.301784 0.746362 0.985615 102.476570 0.052822 83.382946 1.938043 2.444210 21.092447 -2.769871 -16.078128 14.924042 1.984280 7.662833 -8.919280 0.000000 -0.000000 0.000000 0.823709 -1.014232 -12.883938 -3.708175 -9.996241 2.740994 3.040426 -12.272070 1.439312 0.000000 -0.000000 0.000000 -2.180263 -4.930362 8.834476 -0.783671 -1.497255 1.334801 0.302067 -2.083510 -0.091015 2.044860 -3.013413 -7.033960 4.816941 -3.583101 -0.710103 -24.922835 -6.142768 1.871468 -56.142883 -18.559827 9.606160 5.070368 -29.397631 5.509787 -4.129312 -3.266250 -4.671414 23.390677 5.297152 1.647944 58.099595 -0.435223 14.981088 -9.751405 20.552585 2.488299 7.398049 -1.555371 -1.950133 
0.338879 0.740292 0.990754 102.176320 0.377798 83.547408 3.536778 2.192598 18.135559 -4.919467 -13.521471 23.567495 0.101918 6.569822 -2.043746 0.000000 -0.000000 0.000000 1.876014 -0.956820 -10.602507 -3.041266 -9.023509 2.948690 0.936202 -11.394297 1.879897 0.000000 -0.000000 0.000000 -2.085705 -4.014579 8.147354 -0.507422 -1.528755 1.258979 0.211105 -2.080542 -0.138642 1.916832 -3.520122 -6.524332 4.948693 -3.262942 -0.583314 -24.986943 -4.940002 2.222400 -56.386884 -16.699531 9.226106 4.629188 -26.563103 6.229832 -4.411198 -2.493768 -4.584474 23.229925 5.273877 1.730271 57.843041 0.488314 15.136678 -9.849311 20.498565 3.410859 6.732870 -1.798130 -2.131674 
0.373153 0.734217 0.996157 101.309836 0.387227 83.485641 4.350661 1.340606 13.582211 -6.645562 -9.497817 34.266803 -1.236709 6.087808 5.071676 0.000000 -0.000000 0.000000 2.976534 -1.251412 -8.435567 -2.725869 -7.689125 3.666616 -1.662923 -10.768966 0.971103 0.000000 -0.000000 0.000000 -2.286782 -2.489977 7.875624 -0.318871 -1.759763 1.331647 0.082165 -1.874127 -0.147246 1.908101 -4.040840 -6.331042 5.384231 -3.136061 -0.774250 -24.761078 -4.402101 2.288535 -56.095132 -14.875350 8.598163 3.774650 -22.660667 6.836841 -5.295846 -1.583151 -4.457132 22.909147 5.731045 1.756306 57.505439 1.597206 14.968938 -9.695038 21.369714 4.047369 6.435294 -2.090885 -3.097483 
0.405372 0.728695 0.999338 100.797472 0.469081 83.107266 4.817941 0.656117 7.928160 -7.103582 -6.182387 45.231899 -0.550075 5.705658 11.685729 0.000000 -0.000000 0.000000 4.163802 -1.652027 -5.767845 -2.718260 -6.574249 3.783717 -3.845356 -10.642123 -0.332103 0.000000 -0.000000 0.000000 -2.371221 -1.179861 8.284232 -0.221963 -2.066089 1.624651 0.097834 -1.691284 -0.224044 1.729339 -4.881644 -6.890710 5.767885 -3.250027 -0.843659 -24.711624 -4.672871 2.543331 -55.241519 -13.148117 7.833750 3.238037 -19.039896 6.886389 -5.719117 -0.572134 -3.992946 22.676283 6.706226 1.715509 56.714584 2.957377 14.642394 -9.696041 22.752688 3.706445 6.305620 -2.036627 -3.997067 
0.436156 0.723975 1.000817 100.336556 0.550171 82.391014 4.784187 -0.159284 2.646007 -6.278774 -3.204808 53.788768 0.600608 7.229156 12.086875 0.000000 -0.000000 0.000000 5.366709 -1.966886 -2.390849 -3.032766 -5.688955 3.113813 -5.233723 -11.028396 -1.858173 0.000000 -0.000000 0.000000 -2.086192 -0.026497 9.537986 -0.464904 -2.216380 1.163330 -0.074317 -1.442242 0.137319 2.137328 -5.337607 -7.946025 5.812862 -3.403762 -0.316668 -25.142432 -5.042260 2.428307 -53.554295 -11.376971 7.040443 2.735668 -16.505111 7.395084 -6.545416 0.367611 -3.311688 22.900852 7.704901 1.340003 55.315313 4.464894 14.554981 -9.326324 24.018423 3.304361 5.481742 -1.367597 -4.575562 
0.465680 0.720118 1.001545 99.201192 0.468500 81.754904 4.373471 -1.103022 -2.261211 -5.712957 -0.708625 59.149581 2.474088 8.042806 8.772685 0.000000 -0.000000 0.000000 6.106444 -2.642510 0.643123 -3.087252 -4.343277 2.820898 -5.147222 -11.029060 -3.398145 0.000000 -0.000000 0.000000 -1.988577 1.353042 10.485359 -0.603853 -2.210150 0.742968 -0.190235 -0.871895 0.626400 2.428121 -5.460114 -8.622858 5.567187 -3.959376 0.261491 -25.462551 -4.872755 2.163372 -52.282227 -9.576939 6.731586 2.591433 -15.953454 8.781699 -6.326622 1.106941 -2.261365 23.087990 8.714573 0.881586 53.862290 6.407774 14.430593 -9.007987 24.645689 3.712573 4.796346 -1.216239 -3.947373 
0.494913 0.716802 1.002741 97.240118 0.075880 81.204560 3.840203 -1.413946 -6.442194 -5.560708 1.271968 61.040061 3.459612 8.274770 4.100368 0.000000 -0.000000 0.000000 6.375748 -3.298195 3.257823 -3.282527 -2.538387 3.153996 -4.671269 -10.669832 -5.207268 0.000000 -0.000000 0.000000 -2.169762 2.790833 10.820027 -0.825061 -1.727397 0.491822 -0.358137 -0.106382 1.191771 3.002713 -5.321542 -8.615351 5.014444 -4.811865 1.163465 -25.384262 -3.703214 1.478989 -51.639131 -8.026204 6.487898 2.519120 -16.510834 9.929530 -6.015697 1.293955 -2.330720 23.413629 9.247558 0.200362 52.648223 8.775767 14.589003 -8.633976 24.448203 4.527203 3.858856 -1.337262 -2.722214 
0.522898 0.714310 1.003522 95.329343 -0.461961 80.824515 3.048929 -1.641165 -10.276867 -5.291184 2.698107 59.839890 3.831035 8.483261 -1.541803 0.000000 -0.000000 0.000000 6.203268 -3.833376 5.694376 -3.389556 -0.984284 3.281877 -3.845613 -10.169240 -6.972799 0.000000 -0.000000 0.000000 -2.265428 4.174463 11.405665 -1.207585 -1.296844 -0.292052 -0.520608 0.681179 1.829441 3.414593 -5.216003 -8.567255 4.540021 -5.797487 1.989213 -24.859376 -2.513252 0.863304 -51.624105 -6.755351 6.387326 2.393947 -17.243829 10.138104 -4.931857 0.619699 -2.773443 23.298856 9.673415 -0.652199 52.165436 10.755578 14.724545 -8.398296 24.469567 5.009029 2.892157 -1.259308 -2.101628 
0.550667 0.712497 1.003469 93.321604 -0.996679 80.377924 2.462838 -2.010051 -13.248658 -5.064387 4.014302 55.628422 3.636072 8.568526 -4.662206 0.000000 -0.000000 0.000000 5.884044 -4.263468 8.363237 -3.602804 0.452394 3.033746 -3.250579 -9.564236 -8.595574 0.000000 -0.000000 0.000000 -2.359129 5.546533 11.772550 -1.510949 -0.913101 -0.584389 -0.584996 1.510117 2.350635 3.533102 -4.858700 -8.516939 4.213256 -6.643895 2.406260 -24.175351 -1.353400 0.442005 -52.193541 -5.768688 6.254302 2.527902 -18.422425 9.386475 -4.565206 0.017569 -4.408745 23.119983 10.216455 -1.071677 52.000667 12.830161 14.600801 -8.571869 24.702465 4.405597 2.228133 -1.067334 -2.340560 
0.577764 0.711505 1.002740 91.400859 -1.516384 80.176114 1.841468 -2.787920 -15.503119 -4.146219 5.540322 48.975747 3.485644 9.438326 -6.891304 0.000000 -0.000000 0.000000 5.392940 -4.647402 10.764918 -3.827673 1.607311 2.851131 -2.685454 -8.926430 -10.401380 0.000000 -0.000000 0.000000 -2.183917 6.908072 12.337767 -1.965785 -0.619865 -1.157749 -0.733801 2.051194 2.640302 3.662797 -4.443073 -8.469851 3.856414 -7.425388 2.746117 -23.845653 -0.238116 -0.144608 -52.585722 -4.812803 6.324007 2.800233 -19.394420 8.439158 -4.018004 -0.607746 -5.573682 23.094502 10.424108 -1.312287 51.961206 14.552118 14.837821 -8.603050 25.765848 3.797939 1.519180 -0.628718 -2.376492 
0.605221 0.711105 1.000543 89.989142 -1.806788 80.202331 1.369274 -3.400926 -17.307472 -3.332990 6.094902 41.026799 3.563840 10.253176 -7.922158 0.000000 -0.000000 0.000000 5.002135 -4.906673 13.041813 -4.021381 2.795024 2.463388 -2.330340 -8.698688 -12.383644 0.000000 -0.000000 0.000000 -2.011146 7.819967 12.065117 -2.223035 -0.497463 -0.793291 -0.832761 2.460814 2.713396 3.636393 -3.937104 -8.289058 3.610243 -7.926431 2.470329 -23.848460 0.094614 -0.168944 -52.821569 -3.820958 6.514377 3.352780 -20.054698 7.406944 -3.681410 -1.004471 -6.350590 23.073644 11.155691 -1.091726 51.799263 15.976930 15.073786 -8.908533 27.124694 3.138997 1.304180 -0.342420 -2.790178 
0.632238 0.711495 0.997306 88.962810 -1.919962 80.502960 0.919735 -4.169207 -18.761993 -2.795983 5.474179 32.314683 3.385725 10.172843 -7.401277 0.000000 -0.000000 0.000000 4.680367 -5.066360 14.891234 -4.128751 3.718626 2.473720 -2.197598 -8.660280 -14.085343 0.000000 -0.000000 0.000000 -1.661561 8.413659 11.639842 -2.403569 -0.508204 -0.436405 -0.974637 2.781428 2.738598 3.555148 -3.219301 -8.369581 3.240463 -8.461783 2.337893 -24.098524 0.576495 -0.556972 -53.032299 -3.170572 6.655070 3.763691 -20.258107 6.810267 -3.605371 -0.760022 -6.179913 23.248796 11.324126 -1.129459 51.789461 17.120355 15.413649 -9.110231 28.932468 3.143560 1.260051 0.159900 -2.340812 
